<svg width="12.000000" height="12.000000" viewBox="0 0 12 12" fill="none" xmlns="http://www.w3.org/2000/svg" xmlns:xlink="http://www.w3.org/1999/xlink">
	<desc>
			Created with Pixso.
	</desc>
	<defs>
		<clipPath id="clip73_1248">
			<rect id="Type=Right" width="12.000000" height="12.000000" fill="white" fill-opacity="0"/>
		</clipPath>
	</defs>
	<g clip-path="url(#clip73_1248)">
		<g opacity="0.968000">
			<path id="Vector" d="M3.05 -0.02C3.16 -0.02 3.26 -0.02 3.36 -0.02C3.4 0.02 3.45 0.04 3.5 0.07C5.38 1.93 7.26 3.8 9.14 5.68C9.28 5.88 9.28 6.08 9.14 6.29C7.26 8.17 5.38 10.04 3.5 11.9C3.45 11.94 3.41 11.96 3.36 11.98C3.26 11.98 3.16 11.98 3.05 11.98C2.83 11.88 2.72 11.7 2.74 11.44C2.76 11.35 2.8 11.26 2.85 11.19C4.6 9.46 6.34 7.73 8.07 5.98C6.34 4.24 4.6 2.5 2.85 0.78C2.69 0.57 2.69 0.36 2.83 0.15C2.9 0.08 2.97 0.02 3.05 -0.02Z" fill="#1D1818" fill-opacity="1.000000" fill-rule="evenodd"/>
		</g>
	</g>
</svg>
