<svg width="12.000000" height="12.000000" viewBox="0 0 12 12" fill="none" xmlns="http://www.w3.org/2000/svg" xmlns:xlink="http://www.w3.org/1999/xlink">
	<desc>
			Created with Pixso.
	</desc>
	<defs/>
	<mask id="mask33_477" mask-type="alpha" maskUnits="userSpaceOnUse" x="0.000000" y="0.000000" width="12.000000" height="12.000000">
		<path id="Vector" d="M12 12L0 12L0 0L12 0L12 12Z" fill="#000000" fill-opacity="1.000000" fill-rule="evenodd"/>
	</mask>
	<g mask="url(#mask33_477)">
		<g opacity="0.968000">
			<path id="Vector" d="M8.94 12.01C8.83 12.01 8.73 12.01 8.63 12.01C8.59 11.97 8.54 11.95 8.49 11.92C6.61 10.06 4.73 8.19 2.85 6.31C2.71 6.11 2.71 5.91 2.85 5.7C4.73 3.82 6.61 1.95 8.49 0.09C8.54 0.05 8.58 0.03 8.63 0.01C8.73 0.01 8.83 0.01 8.94 0.01C9.16 0.11 9.27 0.29 9.25 0.55C9.23 0.64 9.19 0.73 9.14 0.8C7.39 2.53 5.65 4.26 3.92 6.01C5.65 7.75 7.39 9.49 9.14 11.21C9.3 11.42 9.3 11.63 9.16 11.84C9.09 11.91 9.02 11.97 8.94 12.01Z" fill="#1D1818" fill-opacity="1.000000" fill-rule="evenodd"/>
		</g>
	</g>
</svg>
