<svg width="28" height="26" viewBox="0 0 28 26" fill="none" xmlns="http://www.w3.org/2000/svg">
<path opacity="0.988" fill-rule="evenodd" clip-rule="evenodd" d="M1.25219 0.00390449C2.93982 -0.00650801 4.62732 0.00390449 6.31469 0.0351545C6.78182 0.168923 7.08388 0.471005 7.22094 0.941405C7.51338 2.13192 7.81544 3.31942 8.12719 4.5039C14.3771 4.55597 20.6271 4.58722 26.8772 4.59765C27.585 4.8054 27.8871 5.27415 27.7834 6.0039C26.9501 9.33722 26.1168 12.6706 25.2834 16.0039C24.7296 17.4115 23.6983 18.1927 22.1897 18.3477C18.6689 18.3893 15.148 18.3893 11.6272 18.3477C10.4554 18.257 9.54913 17.7257 8.90844 16.7539C8.71375 16.4199 8.56794 16.0657 8.47094 15.6914C7.36675 11.2747 6.26263 6.85809 5.15844 2.4414C3.88175 2.3897 2.6005 2.35845 1.31469 2.34765C0.581636 2.1631 0.258723 1.69435 0.345942 0.941405C0.47193 0.450936 0.774017 0.138436 1.25219 0.00390449Z" fill="white"/>
<path opacity="0.967" fill-rule="evenodd" clip-rule="evenodd" d="M10.3773 20.5664C12.1752 20.6455 13.0189 21.583 12.9085 23.3789C12.4779 24.7355 11.5508 25.3292 10.1273 25.1602C8.71166 24.6938 8.13872 23.7251 8.40854 22.2539C8.73566 21.3043 9.39191 20.7418 10.3773 20.5664Z" fill="white"/>
<path opacity="0.968" fill-rule="evenodd" clip-rule="evenodd" d="M22.9427 20.5664C24.7419 20.6468 25.5857 21.5843 25.474 23.3789C25.2552 24.3477 24.6615 24.9414 23.6927 25.1602C22.1881 25.3096 21.261 24.6533 20.9115 23.1914C20.8759 21.7588 21.553 20.8838 22.9427 20.5664Z" fill="white"/>
</svg>
