<svg width="18.000000" height="18.000000" viewBox="0 0 18 18" fill="none" xmlns="http://www.w3.org/2000/svg" xmlns:xlink="http://www.w3.org/1999/xlink">
	<desc>
			Created with Pixso.
	</desc>
	<defs>
		<clipPath id="clip40_662">
			<rect id="email" rx="-0.500000" width="17.000000" height="17.000000" transform="translate(0.500000 0.500000)" fill="white" fill-opacity="0"/>
		</clipPath>
	</defs>
	<rect id="email" rx="-0.500000" width="17.000000" height="17.000000" transform="translate(0.500000 0.500000)" fill="#FFFFFF" fill-opacity="0"/>
	<g clip-path="url(#clip40_662)">
		<g opacity="0.992000">
			<path id="Vector" d="M17.98 3.53C17.98 3.76 17.98 4 17.98 4.23C17.88 4.62 17.66 4.94 17.34 5.2C14.88 6.84 12.42 8.48 9.96 10.12C9.31 10.52 8.65 10.52 7.99 10.12C5.53 8.48 3.07 6.84 0.61 5.2C0.29 4.94 0.08 4.62 -0.02 4.23C-0.02 4 -0.02 3.76 -0.02 3.53C0.18 2.83 0.63 2.4 1.35 2.25C6.43 2.22 11.52 2.22 16.61 2.25C17.32 2.4 17.78 2.83 17.98 3.53Z" fill="#FFB067" fill-opacity="1.000000" fill-rule="evenodd"/>
		</g>
		<g opacity="0.994000">
			<path id="Vector" d="M-0.02 5.99C2.52 7.67 5.07 9.37 7.61 11.07C8.52 11.56 9.43 11.56 10.35 11.07C12.89 9.37 15.43 7.67 17.98 5.99C17.98 8.8 17.98 11.61 17.98 14.43C17.78 15.13 17.32 15.55 16.61 15.71C11.52 15.73 6.43 15.73 1.35 15.71C0.63 15.55 0.18 15.13 -0.02 14.43C-0.02 11.61 -0.02 8.8 -0.02 5.99Z" fill="#FFB067" fill-opacity="1.000000" fill-rule="evenodd"/>
		</g>
	</g>
</svg>
