<svg width="23" height="26" viewBox="0 0 23 26" fill="none" xmlns="http://www.w3.org/2000/svg">
<path opacity="0.991" fill-rule="evenodd" clip-rule="evenodd" d="M10.7867 0C11.277 0 11.7673 0 12.2576 0C14.6441 0.424427 16.2652 1.79252 17.121 4.10429C17.8688 7.16696 16.9435 9.54098 14.3453 11.2264C12.6565 12.0662 10.9325 12.1467 9.17345 11.4679C6.64891 10.183 5.48643 8.09864 5.68599 5.21487C5.99351 3.19616 7.01364 1.67515 8.74641 0.651858C9.39456 0.31118 10.0746 0.0938936 10.7867 0Z" fill="white"/>
<path opacity="0.994" fill-rule="evenodd" clip-rule="evenodd" d="M18.5221 25.6667C13.8352 25.6667 9.1483 25.6667 4.46142 25.6667C2.83977 25.4546 1.68073 24.5936 0.984312 23.0838C0.830847 22.7014 0.729326 22.3054 0.679748 21.8957C0.54342 19.9072 0.763381 17.9615 1.33964 16.0585C1.71802 14.8481 2.36944 13.8236 3.29392 12.985C4.33512 12.1841 5.50262 11.8742 6.79641 12.0552C7.35493 12.3737 7.89639 12.7181 8.42075 13.0883C10.3566 14.2314 12.3193 14.2831 14.309 13.2433C14.9265 12.8343 15.5526 12.4382 16.1871 12.0552C18.2685 11.8443 19.8506 12.645 20.9333 14.4572C21.7455 16.024 22.2023 17.6942 22.3038 19.4679C22.3768 20.2953 22.3768 21.1218 22.3038 21.9474C21.8967 24.0871 20.6362 25.3269 18.5221 25.6667Z" fill="white"/>
</svg>
