<svg width="18.000000" height="18.000000" viewBox="0 0 18 18" fill="none" xmlns="http://www.w3.org/2000/svg" xmlns:xlink="http://www.w3.org/1999/xlink">
	<desc>
			Created with Pixso.
	</desc>
	<defs>
		<clipPath id="clip40_669">
			<rect id="phone" rx="-0.500000" width="17.000000" height="17.000000" transform="translate(0.500000 0.500000)" fill="white" fill-opacity="0"/>
		</clipPath>
	</defs>
	<rect id="phone" rx="-0.500000" width="17.000000" height="17.000000" transform="translate(0.500000 0.500000)" fill="#FFFFFF" fill-opacity="0"/>
	<g clip-path="url(#clip40_669)">
		<g opacity="0.989000">
			<path id="Vector" d="M4.13 0.54C4.6 0.5 4.98 0.66 5.27 1.03C6.08 2.14 6.78 3.31 7.38 4.55C7.47 4.79 7.54 5.03 7.57 5.29C7.56 5.47 7.5 5.65 7.41 5.81C7.01 6.25 6.57 6.66 6.09 7.03C6.95 9.38 8.56 10.99 10.91 11.86C11.18 11.56 11.44 11.26 11.7 10.95C11.95 10.63 12.27 10.44 12.67 10.38C13.24 10.49 13.78 10.7 14.29 11C15.21 11.53 16.1 12.11 16.96 12.72C17.43 13.12 17.53 13.6 17.26 14.15C16.76 14.8 16.19 15.4 15.55 15.92C14.88 16.5 14.16 16.99 13.37 17.4C12.79 17.42 12.21 17.33 11.65 17.15C10.26 16.7 8.97 16.07 7.78 15.25C4.97 13.31 2.82 10.81 1.33 7.75C0.97 6.92 0.71 6.07 0.56 5.18C0.53 4.98 0.53 4.78 0.56 4.58C1.34 3.15 2.35 1.9 3.6 0.84C3.77 0.72 3.94 0.62 4.13 0.54Z" fill="#FFB067" fill-opacity="1.000000" fill-rule="evenodd"/>
		</g>
	</g>
</svg>
