<svg width="50.000000" height="50.000000" viewBox="0 0 50 50" fill="none" xmlns="http://www.w3.org/2000/svg" xmlns:xlink="http://www.w3.org/1999/xlink">
	<desc>
			Created with Pixso.
	</desc>
	<defs>
		<clipPath id="clip40_260">
			<rect id="State=Open" rx="-0.500000" width="49.000000" height="49.000000" transform="translate(0.500000 0.500000)" fill="white" fill-opacity="0"/>
		</clipPath>
	</defs>
	<rect id="State=Open" rx="-0.500000" width="49.000000" height="49.000000" transform="translate(0.500000 0.500000)" fill="#FFFFFF" fill-opacity="0"/>
	<g clip-path="url(#clip40_260)">
		<g opacity="0.964000">
			<path id="Vector" d="M22.7 -0.05C24.2 -0.05 25.7 -0.05 27.19 -0.05C36.94 1.21 43.89 6.29 48.04 15.18C49.03 17.61 49.67 20.12 49.95 22.7C49.95 24.2 49.95 25.7 49.95 27.19C48.68 36.94 43.6 43.89 34.71 48.04C32.28 49.03 29.78 49.67 27.19 49.95C25.7 49.95 24.2 49.95 22.7 49.95C12.96 48.68 6.01 43.6 1.85 34.71C0.86 32.28 0.23 29.78 -0.05 27.19C-0.05 25.7 -0.05 24.2 -0.05 22.7C1.21 12.96 6.29 6.01 15.18 1.85C17.61 0.86 20.12 0.23 22.7 -0.05ZM24.85 3.07C34.23 3.5 40.95 7.93 45.01 16.35C47.79 23.4 47.23 30.17 43.35 36.66C38.96 43.14 32.82 46.52 24.95 46.82C17.07 46.52 10.93 43.14 6.54 36.66C2.84 30.55 2.15 24.1 4.49 17.33C6.77 11.59 10.73 7.44 16.35 4.88C19.08 3.74 21.92 3.14 24.85 3.07Z" fill="#1D1818" fill-opacity="1.000000" fill-rule="evenodd"/>
		</g>
		<g opacity="0.977000">
			<path id="Vector" d="M24.36 14.01C24.91 13.95 25.43 14.03 25.92 14.25C28.64 16.97 31.36 19.69 34.08 22.41C34.49 23.26 34.38 24.02 33.74 24.7C33.08 25.03 32.43 25.03 31.78 24.7C30.04 22.96 28.3 21.22 26.56 19.48C26.53 24.62 26.49 29.76 26.46 34.91C26.19 35.59 25.68 35.91 24.95 35.88C24.21 35.91 23.71 35.59 23.43 34.91C23.4 29.76 23.37 24.62 23.33 19.48C21.59 21.22 19.85 22.96 18.11 24.7C17.46 25.03 16.81 25.03 16.16 24.7C15.52 24.02 15.4 23.26 15.82 22.41C18.62 19.55 21.47 16.75 24.36 14.01Z" fill="#1D1818" fill-opacity="1.000000" fill-rule="evenodd"/>
		</g>
	</g>
</svg>
