<svg width="32" height="26" viewBox="0 0 32 26" fill="none" xmlns="http://www.w3.org/2000/svg">
<path d="M2.66797 2H30.1875M2.66797 13.0078H10.2358M2.66797 24.0156H10.2358" stroke="white" stroke-width="3.5" stroke-linecap="round"/>
<path d="M21.5862 20.5757C23.1371 20.5757 24.6246 19.9596 25.7213 18.8629C26.818 17.7662 27.4341 16.2787 27.4341 14.7278C27.4341 13.1768 26.818 11.6894 25.7213 10.5927C24.6246 9.496 23.1371 8.87988 21.5862 8.87988C20.0352 8.87988 18.5478 9.496 17.4511 10.5927C16.3544 11.6894 15.7383 13.1768 15.7383 14.7278C15.7383 16.2787 16.3544 17.7662 17.4511 18.8629C18.5478 19.9596 20.0352 20.5757 21.5862 20.5757Z" stroke="white" stroke-width="3.5"/>
<path d="M25.3711 19.1997L30.187 24.05" stroke="white" stroke-width="3.5" stroke-linecap="round"/>
</svg>
