<svg width="32" height="32" viewBox="0 0 32 32" fill="none" xmlns="http://www.w3.org/2000/svg">
<g clip-path="url(#clip0_85_3522)">
<path opacity="0.957" fill-rule="evenodd" clip-rule="evenodd" d="M14.5938 -0.03125C15.5104 -0.03125 16.4271 -0.03125 17.3438 -0.03125C23.6104 0.75255 28.0791 4.00255 30.75 9.71875C31.3935 11.2928 31.7997 12.9178 31.9688 14.5938C31.9688 15.5104 31.9688 16.4271 31.9688 17.3438C31.1849 23.6104 27.9349 28.0791 22.2188 30.75C20.6448 31.3935 19.0198 31.7997 17.3438 31.9688C16.4271 31.9688 15.5104 31.9688 14.5938 31.9688C8.32713 31.1849 3.85838 27.9349 1.1875 22.2188C0.543996 20.6448 0.137746 19.0198 -0.03125 17.3438C-0.03125 16.4271 -0.03125 15.5104 -0.03125 14.5938C0.75255 8.32713 4.00255 3.85838 9.71875 1.1875C11.2928 0.543996 12.9178 0.137746 14.5938 -0.03125ZM15.5938 1.59375C20.4744 1.63327 24.4224 3.54994 27.4375 7.34375C30.4431 11.5866 31.0889 16.1699 29.375 21.0938C27.4071 25.8113 23.9384 28.7801 18.9688 30C13.076 31.0086 8.25306 29.2065 4.5 24.5938C1.49443 20.3509 0.848594 15.7676 2.5625 10.8438C4.72777 5.73362 8.55069 2.70237 14.0312 1.75C14.5614 1.69652 15.0823 1.64444 15.5938 1.59375Z" fill="#1D1818"/>
<path opacity="0.945" fill-rule="evenodd" clip-rule="evenodd" d="M10.4059 9.84353C10.7513 9.79422 11.0638 9.86716 11.3434 10.0623C12.8756 11.6048 14.4172 13.1361 15.9684 14.656C17.5197 13.1361 19.0613 11.6048 20.5934 10.0623C21.0286 9.76309 21.4557 9.77353 21.8747 10.0935C22.0562 10.4155 22.0771 10.7488 21.9372 11.0935C20.3434 12.6873 18.7497 14.281 17.1559 15.8748C18.7497 17.4685 20.3434 19.0623 21.9372 20.656C22.1996 21.58 21.8559 21.9863 20.9059 21.8748C20.8017 21.8123 20.6976 21.7498 20.5934 21.6873C19.0613 20.1447 17.5197 18.6135 15.9684 17.0935C14.4172 18.6135 12.8756 20.1447 11.3434 21.6873C10.9083 21.9865 10.4812 21.976 10.0622 21.656C9.88062 21.3341 9.85981 21.0007 9.99969 20.656C11.5934 19.0623 13.1872 17.4685 14.7809 15.8748C13.1872 14.281 11.5934 12.6873 9.99969 11.0935C9.775 10.5462 9.91037 10.1295 10.4059 9.84353Z" fill="#1D1818"/>
</g>
<defs>
<clipPath id="clip0_85_3522">
<rect width="32" height="32" fill="white"/>
</clipPath>
</defs>
</svg>
