<svg width="18.000000" height="18.000000" viewBox="0 0 18 18" fill="none" xmlns="http://www.w3.org/2000/svg" xmlns:xlink="http://www.w3.org/1999/xlink">
	<desc>
			Created with Pixso.
	</desc>
	<defs>
		<clipPath id="clip40_655">
			<rect id="location" rx="-0.500000" width="17.000000" height="17.000000" transform="translate(0.500000 0.500000)" fill="white" fill-opacity="0"/>
		</clipPath>
	</defs>
	<rect id="location" rx="-0.500000" width="17.000000" height="17.000000" transform="translate(0.500000 0.500000)" fill="#FFFFFF" fill-opacity="0"/>
	<g clip-path="url(#clip40_655)">
		<g opacity="0.988000">
			<path id="Vector" d="M8.34 -0.02C8.77 -0.02 9.19 -0.02 9.61 -0.02C12.08 0.36 13.73 1.73 14.55 4.09C15 5.7 14.82 7.23 14.02 8.7C12.49 11.09 10.95 13.48 9.42 15.87C9.12 16.15 8.83 16.15 8.54 15.87C7.03 13.51 5.51 11.16 4 8.8C3.04 7.1 2.92 5.33 3.62 3.49C4.57 1.48 6.14 0.31 8.34 -0.02ZM8.59 3.18C10.09 3.09 11.07 3.76 11.53 5.18C11.74 6.77 11.09 7.82 9.58 8.33C7.98 8.54 6.94 7.89 6.43 6.38C6.21 4.91 6.78 3.89 8.13 3.3C8.29 3.25 8.44 3.21 8.59 3.18Z" fill="#FFB067" fill-opacity="1.000000" fill-rule="evenodd"/>
		</g>
		<g opacity="0.984000">
			<path id="Vector" d="M10.1 17.98C9.35 17.98 8.6 17.98 7.85 17.98C6.39 17.89 4.96 17.63 3.56 17.19C2.74 16.93 2.03 16.49 1.44 15.87C0.84 14.94 0.96 14.11 1.81 13.39C2.47 12.89 3.21 12.52 4.02 12.3C4.29 12.23 4.56 12.15 4.83 12.07C5.78 13.52 6.72 14.97 7.66 16.43C8.35 17.11 9.12 17.21 9.96 16.73C10.06 16.65 10.16 16.56 10.26 16.47C11.18 15.07 12.08 13.66 12.97 12.25C13 12.17 13.06 12.12 13.13 12.07C13.76 12.23 14.38 12.44 14.99 12.69C15.56 12.94 16.05 13.28 16.48 13.72C17.01 14.43 17.02 15.15 16.52 15.87C16.07 16.35 15.54 16.72 14.92 16.98C13.93 17.37 12.91 17.64 11.86 17.78C11.27 17.86 10.68 17.93 10.1 17.98Z" fill="#FFB067" fill-opacity="1.000000" fill-rule="evenodd"/>
		</g>
	</g>
</svg>
