<svg width="18.000000" height="18.000000" viewBox="0 0 18 18" fill="none" xmlns="http://www.w3.org/2000/svg" xmlns:xlink="http://www.w3.org/1999/xlink">
	<desc>
			Created with Pixso.
	</desc>
	<defs>
		<clipPath id="clip40_674">
			<rect id="person" rx="-0.500000" width="17.000000" height="17.000000" transform="translate(0.500000 0.500000)" fill="white" fill-opacity="0"/>
		</clipPath>
	</defs>
	<g clip-path="url(#clip40_674)">
		<g opacity="0.991000">
			<path id="Vector" d="M8.41 -0.02C8.79 -0.02 9.16 -0.02 9.54 -0.02C11.18 0.22 12.43 1.05 13.28 2.47C14.24 4.43 14.08 6.28 12.79 8.03C11.31 9.64 9.51 10.15 7.4 9.56C5.45 8.81 4.34 7.39 4.07 5.32C3.97 3.25 4.8 1.67 6.55 0.59C7.14 0.27 7.76 0.07 8.41 -0.02Z" fill="#FFB067" fill-opacity="1.000000" fill-rule="evenodd"/>
		</g>
		<g opacity="0.991000">
			<path id="Vector" d="M17.98 15.24C17.98 15.72 17.98 16.2 17.98 16.68C17.79 17.36 17.36 17.79 16.68 17.98C11.54 17.98 6.41 17.98 1.28 17.98C0.6 17.79 0.16 17.36 -0.02 16.68C-0.02 16.2 -0.02 15.72 -0.02 15.24C0.15 14.17 0.68 13.32 1.56 12.69C2.81 11.97 4.14 11.43 5.55 11.09C5.75 11.07 5.89 11.15 5.97 11.33C6.52 12.87 7.07 14.4 7.62 15.94C7.8 15.13 7.97 14.32 8.13 13.51C7.87 12.73 7.6 11.94 7.34 11.16C7.28 10.89 7.38 10.71 7.64 10.61C8.53 10.59 9.42 10.59 10.31 10.61C10.57 10.71 10.67 10.89 10.61 11.16C10.35 11.94 10.09 12.73 9.82 13.51C9.99 14.32 10.16 15.13 10.33 15.94C10.88 14.4 11.43 12.87 11.98 11.33C12.07 11.15 12.21 11.07 12.41 11.09C13.81 11.43 15.14 11.97 16.4 12.69C17.28 13.32 17.8 14.17 17.98 15.24Z" fill="#FFB067" fill-opacity="1.000000" fill-rule="evenodd"/>
		</g>
	</g>
</svg>
